<?xml version="1.0" encoding="UTF-8"?>
<!DOCTYPE svg PUBLIC "-//W3C//DTD SVG 1.1//EN" "http://www.w3.org/Graphics/SVG/1.1/DTD/svg11.dtd">
<svg xmlns="http://www.w3.org/2000/svg" version="1.1" width="500px" height="500px" style="shape-rendering:geometricPrecision; text-rendering:geometricPrecision; image-rendering:optimizeQuality; fill-rule:evenodd; clip-rule:evenodd" xmlns:xlink="http://www.w3.org/1999/xlink">
<g><path style="opacity:1" fill="#fefeff" d="M -0.5,-0.5 C 166.167,-0.5 332.833,-0.5 499.5,-0.5C 499.5,166.167 499.5,332.833 499.5,499.5C 332.833,499.5 166.167,499.5 -0.5,499.5C -0.5,332.833 -0.5,166.167 -0.5,-0.5 Z"/></g>
<g><path style="opacity:1" fill="#67c7ff" d="M 274.5,209.5 C 304.329,208.502 334.329,208.169 364.5,208.5C 364.5,214.833 364.5,221.167 364.5,227.5C 354.833,227.5 345.167,227.5 335.5,227.5C 344.652,226.506 353.985,226.173 363.5,226.5C 363.5,220.833 363.5,215.167 363.5,209.5C 333.833,209.5 304.167,209.5 274.5,209.5 Z"/></g>
<g><path style="opacity:1" fill="#3ab6ff" d="M 112.5,208.5 C 112.5,214.5 112.5,220.5 112.5,226.5C 94.3256,226.17 76.3256,226.503 58.5,227.5C 58.5,231.167 58.5,234.833 58.5,238.5C 73.8333,238.5 89.1667,238.5 104.5,238.5C 104.5,243.5 104.5,248.5 104.5,253.5C 89.1667,253.5 73.8333,253.5 58.5,253.5C 58.5,257.167 58.5,260.833 58.5,264.5C 77.6595,265.497 96.9928,265.83 116.5,265.5C 116.5,271.5 116.5,277.5 116.5,283.5C 86.8333,283.5 57.1667,283.5 27.5,283.5C 27.5,258.5 27.5,233.5 27.5,208.5C 55.8333,208.5 84.1667,208.5 112.5,208.5 Z"/></g>
<g><path style="opacity:1" fill="#3ab6ff" d="M 123.5,208.5 C 145.169,208.333 166.836,208.5 188.5,209C 226.599,212.098 239.099,231.598 226,267.5C 215.895,277.319 203.728,282.486 189.5,283C 167.503,283.5 145.503,283.667 123.5,283.5C 123.5,258.5 123.5,233.5 123.5,208.5 Z"/></g>
<g><path style="opacity:1" fill="#38b6ff" d="M 237.5,208.5 C 247.833,208.5 258.167,208.5 268.5,208.5C 268.5,233.5 268.5,258.5 268.5,283.5C 258.167,283.5 247.833,283.5 237.5,283.5C 237.5,258.5 237.5,233.5 237.5,208.5 Z"/></g>
<g><path style="opacity:1" fill="#3bb6ff" d="M 274.5,209.5 C 304.167,209.5 333.833,209.5 363.5,209.5C 363.5,215.167 363.5,220.833 363.5,226.5C 353.985,226.173 344.652,226.506 335.5,227.5C 335.5,246.167 335.5,264.833 335.5,283.5C 324.833,283.5 314.167,283.5 303.5,283.5C 303.5,264.833 303.5,246.167 303.5,227.5C 293.833,227.5 284.167,227.5 274.5,227.5C 274.5,221.5 274.5,215.5 274.5,209.5 Z"/></g>
<g><path style="opacity:1" fill="#73cbff" d="M 401.5,238.5 C 400.506,229.014 400.173,219.348 400.5,209.5C 390.5,209.5 380.5,209.5 370.5,209.5C 370.5,234.167 370.5,258.833 370.5,283.5C 369.502,258.672 369.169,233.672 369.5,208.5C 380.167,208.5 390.833,208.5 401.5,208.5C 401.5,218.5 401.5,228.5 401.5,238.5 Z"/></g>
<g><path style="opacity:1" fill="#3ab6ff" d="M 370.5,283.5 C 370.5,258.833 370.5,234.167 370.5,209.5C 380.5,209.5 390.5,209.5 400.5,209.5C 400.173,219.348 400.506,229.014 401.5,238.5C 414.5,238.5 427.5,238.5 440.5,238.5C 440.5,228.5 440.5,218.5 440.5,208.5C 450.833,208.5 461.167,208.5 471.5,208.5C 471.5,233.5 471.5,258.5 471.5,283.5C 461.167,283.5 450.833,283.5 440.5,283.5C 440.5,273.5 440.5,263.5 440.5,253.5C 427.5,253.5 414.5,253.5 401.5,253.5C 401.5,263.5 401.5,273.5 401.5,283.5C 391.167,283.5 380.833,283.5 370.5,283.5 Z"/></g>
<g><path style="opacity:1" fill="#73cbff" d="M 112.5,208.5 C 113.49,214.645 113.823,220.978 113.5,227.5C 95.1667,227.5 76.8333,227.5 58.5,227.5C 76.3256,226.503 94.3256,226.17 112.5,226.5C 112.5,220.5 112.5,214.5 112.5,208.5 Z"/></g>
<g><path style="opacity:1" fill="#9fdbff" d="M 155.5,227.5 C 155.5,239.833 155.5,252.167 155.5,264.5C 162.167,264.5 168.833,264.5 175.5,264.5C 168.687,265.491 161.687,265.825 154.5,265.5C 154.171,252.656 154.505,239.989 155.5,227.5 Z"/></g>
<g><path style="opacity:1" fill="#fefeff" d="M 155.5,227.5 C 165.883,227.162 176.216,227.662 186.5,229C 194.802,231.634 198.802,237.301 198.5,246C 198.139,256.364 192.806,262.364 182.5,264C 180.19,264.497 177.857,264.663 175.5,264.5C 168.833,264.5 162.167,264.5 155.5,264.5C 155.5,252.167 155.5,239.833 155.5,227.5 Z"/></g>
<g><path style="opacity:1" fill="#97d8ff" d="M 58.5,264.5 C 78.1667,264.5 97.8333,264.5 117.5,264.5C 117.823,271.022 117.49,277.355 116.5,283.5C 116.5,277.5 116.5,271.5 116.5,265.5C 96.9928,265.83 77.6595,265.497 58.5,264.5 Z"/></g>
</svg>
